<?xml version="1.0" standalone="no"?>
<!DOCTYPE svg PUBLIC "-//W3C//DTD SVG 20010904//EN"
 "http://www.w3.org/TR/2001/REC-SVG-20010904/DTD/svg10.dtd">
<svg version="1.0" xmlns="http://www.w3.org/2000/svg"
 width="738.000000pt" height="799.000000pt" viewBox="0 0 738.000000 799.000000"
 preserveAspectRatio="xMidYMid meet">

<g transform="translate(0.000000,799.000000) scale(0.100000,-0.100000)"
fill="#0033CC" stroke="none">
<path d="M648 7980 c-289 -49 -519 -242 -615 -515 l-28 -80 0 -3565 0 -3565
28 -55 c50 -97 120 -156 220 -185 47 -14 120 -15 553 -13 l499 3 56 26 c74 35
133 95 170 172 l29 62 0 3075 c0 2421 3 3080 13 3099 6 13 25 34 40 45 l28 21
1837 3 c1010 2 1857 0 1881 -3 30 -5 54 -16 73 -35 l28 -28 0 -1132 0 -1131
-352 -382 c-194 -210 -368 -399 -385 -420 l-33 -38 0 -299 0 -300 332 -502
c182 -277 336 -517 341 -535 13 -42 -6 -89 -47 -114 -29 -18 -58 -19 -444 -19
-372 0 -417 2 -443 17 -22 13 -74 102 -229 393 l-200 376 2 749 3 750 265 5
c252 5 267 6 312 28 62 31 122 100 144 165 21 63 21 170 0 200 -33 49 -1428
1642 -1434 1638 -10 -5 -1410 -1610 -1428 -1638 -21 -30 -21 -137 0 -200 22
-65 82 -134 144 -165 43 -21 64 -23 242 -28 l195 -5 5 -840 5 -840 524 -1025
c288 -564 534 -1044 548 -1068 15 -26 39 -50 63 -62 39 -20 59 -20 1477 -20
899 0 1464 4 1508 10 330 47 608 227 733 476 52 102 67 173 66 304 0 110 -3
135 -28 205 -42 123 -259 483 -685 1139 -311 478 -383 595 -383 622 0 28 14
50 79 126 44 51 171 201 283 333 113 132 215 251 228 265 66 72 134 162 142
190 5 17 8 814 7 1873 l-2 1842 -27 80 c-90 265 -320 461 -598 511 -62 11
-574 13 -2885 12 -1545 0 -2831 -4 -2857 -8z"/>
</g>
</svg>
